<svg width="163" height="18" viewBox="0 0 163 18" fill="none" xmlns="http://www.w3.org/2000/svg">
<path fill-rule="evenodd" clip-rule="evenodd" d="M45.4444 0L46.3578 0.5238V1.56409L37.183 6.79803L37.1049 6.75375V16.7502L36.2683 17.25L35.4226 16.7385V6.74775L35.3347 6.79803L26.1697 1.57882V0.520055L27.0832 0L36.2638 5.22651V5.23475L45.4444 0Z" fill="#FBC753"/>
<path fill-rule="evenodd" clip-rule="evenodd" d="M82.4105 0L91.594 5.22651V5.31825L100.776 0.0849757L101.688 0.608776V1.64907L92.5163 6.88301L92.4352 6.837V16.7502L91.5955 17.25L90.7529 16.7385V6.74925L90.6679 6.79803L81.5 1.57882V0.520055L82.4105 0Z" fill="#92C74C"/>
<path fill-rule="evenodd" clip-rule="evenodd" d="M162.087 0L163 0.523379V1.56932L153.825 6.83168L153.747 6.78675V16.7477L152.91 17.25L152.065 16.7352V6.78L151.977 6.83168L142.812 1.58582V0.522629L143.725 0L152.906 5.25157V5.2591L162.087 0Z" fill="#EE5A85"/>
<path fill-rule="evenodd" clip-rule="evenodd" d="M137.888 3.79377L141.897 12.2183H133.838L137.888 3.79377ZM144.569 17.8555L145.841 17.9568L146.55 16.9511L138.613 0.244962H137.175L129.203 16.9511L129.906 17.9568L131.175 17.8555L132.968 14.123H142.783L144.569 17.8555ZM52.6138 3.79377L56.6263 12.2183H48.5667L52.6138 3.79377ZM59.3045 17.8555L60.5697 17.9568L61.2794 16.9511L53.3452 0.244962H51.9105L43.9352 16.9511L44.6418 17.9568L45.9069 17.8555L47.6905 14.123H57.5153L59.3045 17.8555ZM20.1639 3.79377L24.1732 12.2183H16.1136L20.1639 3.79377ZM26.8515 17.8555L28.1231 17.9568L28.8296 16.9511L20.8921 0.244962H19.4606L11.4789 16.9511L12.1887 17.9568L13.4571 17.8555L15.2439 14.123H25.0622L26.8515 17.8555ZM66.0299 0.208846H64.4134V17.4512L65.5154 18L66.611 17.4512V4.54829L77.0764 17.9419H78.696V0.791416L77.5787 0.208846L76.4952 0.791416V13.5742L66.0299 0.208846ZM130.87 1.2358L130.258 0.220623L128.895 0.281863L122.305 14.2643L115.639 0.325046L114.308 0.220623L113.598 1.2358L116.138 6.57236L112.443 14.3688L105.695 0.303847L104.358 0.220623L103.63 1.2358L111.674 17.9419H113.065L117.294 8.97095L121.59 17.9419H123.011L130.87 1.2358ZM2.20078 1.98718H4.54624C5.98744 1.98718 7.06774 2.33107 7.81526 3.0636C8.45588 3.69249 8.78544 4.58833 8.78544 5.69851C8.78544 6.96179 8.32969 7.91573 7.54519 8.54776C6.77275 9.15153 5.73666 9.43418 4.54624 9.43418C3.38798 9.43418 2.66216 9.37843 2.20078 9.31091V1.98718ZM4.54624 11.3633C6.39255 11.3633 8.12553 10.7956 9.328 9.76237C10.4493 8.78644 11.1365 7.40382 11.1365 5.69851C11.1365 4.02068 10.5715 2.70165 9.63585 1.74535C8.49929 0.58571 6.77275 0 4.54624 0H0V17.3892L1.102 18L2.20078 17.3892V11.2651C2.66216 11.3232 3.63876 11.3633 4.54624 11.3633Z" fill="#111111"/>
</svg>